<?xml version="1.0" encoding="UTF-8"?>
<svg xmlns="http://www.w3.org/2000/svg" xmlns:xlink="http://www.w3.org/1999/xlink" clip-rule="evenodd" stroke-miterlimit="10" viewBox="0 0 945.00 573.00">
    <desc>SVG generated by Lineform</desc>
    <defs/>
    <g>
        <path d="M 245.40 0.00 L 305.93 0.00 C 308.17 1.85 310.80 3.87 310.97 7.05 C 312.04 17.92 310.90 28.89 311.51 39.79 C 311.60 43.36 314.35 45.93 316.71 48.27 C 324.11 55.20 331.18 62.48 338.62 69.38 C 342.26 72.69 345.31 76.75 349.53 79.38 C 353.16 80.75 357.19 79.98 360.99 80.07 C 379.33 79.90 397.67 80.07 416.02 79.98 C 420.22 80.15 424.95 79.84 428.49 82.53 C 434.61 87.39 439.07 94.11 445.51 98.59 C 449.37 100.90 453.18 97.40 455.71 94.74 C 469.51 80.53 483.54 66.54 497.58 52.57 C 502.75 47.19 512.37 47.00 517.57 52.43 C 531.44 65.89 545.06 79.61 559.00 93.00 C 560.92 94.93 562.87 97.18 563.06 100.04 C 563.67 105.34 563.20 110.68 563.32 116.01 C 563.29 120.71 563.83 125.43 563.23 130.11 C 563.22 128.79 563.20 127.46 563.17 126.14 C 561.20 128.09 559.49 130.75 556.60 131.36 C 549.97 132.55 543.06 130.58 536.53 132.41 C 534.61 134.17 535.10 136.95 535.27 139.26 C 536.01 145.82 535.56 152.42 535.66 159.00 C 535.63 164.35 536.04 169.75 535.15 175.06 C 535.14 173.71 535.12 172.36 535.08 171.01 C 533.02 173.62 530.91 176.21 528.53 178.54 C 520.45 186.45 512.49 194.50 504.50 202.50 C 500.64 206.35 496.92 210.68 491.72 212.73 C 488.02 214.28 483.92 214.11 480.00 214.12 C 474.71 214.02 469.43 214.13 464.15 214.18 C 462.66 214.14 461.17 214.08 459.70 214.01 C 463.04 209.62 467.24 206.01 471.10 202.10 C 477.58 195.57 484.08 189.07 490.63 182.62 C 492.65 180.48 495.06 178.20 495.16 175.05 C 495.77 167.77 494.65 160.45 495.41 153.18 C 495.62 151.02 496.68 148.39 499.14 148.11 C 505.62 147.03 512.24 148.27 518.75 147.42 C 521.75 147.07 523.09 143.75 523.00 141.06 C 523.16 131.83 522.96 122.58 522.82 113.34 C 523.18 110.52 522.50 107.65 520.21 105.80 C 513.15 99.18 506.73 91.93 499.83 85.16 C 497.40 82.83 494.59 80.27 491.00 80.33 C 487.13 80.25 484.17 83.09 481.60 85.61 C 468.16 99.17 454.58 112.60 441.15 126.17 C 438.87 128.53 435.70 129.57 432.76 130.80 C 424.25 124.39 417.41 116.14 409.58 108.96 C 408.21 107.51 407.04 105.84 405.38 104.69 C 403.38 103.87 401.15 104.01 399.04 103.93 C 385.69 104.04 372.34 103.96 359.00 103.99 C 353.11 104.01 347.17 103.59 341.35 104.69 C 329.21 93.16 317.48 81.21 305.54 69.46 C 303.08 66.92 299.80 64.44 299.59 60.60 C 299.03 54.84 299.45 49.04 299.55 43.26 C 299.49 41.12 299.80 38.58 298.06 36.98 C 295.53 34.21 291.68 33.24 288.04 33.31 C 277.36 33.33 266.67 33.43 255.98 33.29 C 253.59 33.35 251.12 33.19 248.83 33.96 C 240.73 37.63 237.10 47.40 228.58 50.32 C 217.61 51.81 206.34 49.33 195.44 51.60 C 191.59 48.45 187.81 45.21 184.46 41.53 C 181.99 38.65 178.99 36.10 175.08 35.64 C 175.79 35.06 176.50 34.48 177.20 33.90 C 175.59 33.62 173.98 32.99 172.33 33.22 C 169.82 34.20 167.95 36.24 166.05 38.06 C 153.82 50.51 141.37 62.74 129.10 75.13 C 125.47 78.48 125.06 83.67 125.68 88.28 C 126.27 96.12 126.08 103.99 125.99 111.85 C 125.06 114.95 123.59 117.94 121.25 120.22 C 100.45 140.76 80.26 161.91 59.25 182.23 C 55.29 185.78 50.53 190.55 52.44 196.41 C 57.70 203.76 65.23 209.07 70.99 215.99 C 73.09 218.47 73.01 221.89 73.09 224.96 C 72.93 244.97 73.08 264.99 72.99 285.00 C 73.00 288.62 72.79 292.27 73.28 295.87 C 73.92 300.06 76.85 303.37 79.68 306.32 C 93.07 319.59 106.37 332.95 119.69 346.30 C 122.52 349.02 125.78 351.94 129.96 351.95 C 148.26 352.26 166.60 351.66 184.88 352.17 C 188.49 352.01 189.01 356.00 189.19 358.72 C 180.92 365.20 174.36 373.55 166.47 380.45 C 162.20 384.28 155.95 382.29 151.16 384.85 C 150.11 384.17 149.06 383.49 148.00 382.83 C 152.24 378.13 156.92 373.86 161.36 369.36 C 162.88 368.08 163.00 366.13 163.05 364.29 C 143.28 363.39 123.46 364.65 103.69 363.58 C 100.77 361.09 97.88 358.54 95.15 355.84 C 80.83 341.50 66.51 327.16 52.16 312.85 C 48.33 308.97 43.85 305.38 41.72 300.20 C 40.44 297.33 40.25 294.14 40.23 291.05 C 40.39 264.03 40.23 237.02 40.33 210.01 C 40.15 206.60 40.65 202.60 38.05 199.93 C 33.66 194.99 28.27 190.97 24.27 185.69 C 21.37 181.99 21.39 176.69 23.69 172.70 C 26.29 168.13 30.58 164.91 34.17 161.16 C 55.92 139.24 77.91 117.57 99.85 95.84 C 102.20 93.39 104.93 90.70 104.94 87.05 C 105.36 77.70 104.67 68.32 105.08 58.97 C 105.23 54.07 107.87 49.65 111.34 46.33 C 124.31 33.64 136.98 20.64 149.93 7.94 C 152.48 5.63 155.20 2.57 158.97 2.88 C 162.12 2.96 164.67 5.04 166.82 7.13 C 172.54 12.79 177.98 18.75 183.89 24.21 C 187.12 27.31 191.88 26.83 195.99 26.93 C 201.55 26.79 207.14 27.25 212.67 26.54 C 215.68 26.21 217.90 23.96 219.94 21.95 C 225.05 16.72 230.21 11.55 235.36 6.36 C 238.16 3.49 241.64 1.36 245.40 0.00 Z M 245.40 0.00 " fill="#B9B0B0"/>
        <path d="M 172.33 33.22 C 173.98 32.99 175.59 33.62 177.20 33.90 C 176.50 34.48 175.79 35.06 175.08 35.64 C 169.43 40.10 164.89 45.75 159.48 50.48 C 149.75 60.08 140.14 69.81 130.44 79.44 C 127.90 81.78 126.59 85.03 125.68 88.28 C 125.06 83.67 125.47 78.48 129.10 75.13 C 141.37 62.74 153.82 50.51 166.05 38.06 C 167.95 36.24 169.82 34.20 172.33 33.22 Z M 172.33 33.22 " fill="#474747"/>
        <path d="M 248.83 33.96 C 251.12 33.19 253.59 33.35 255.98 33.29 C 266.67 33.43 277.36 33.33 288.04 33.31 C 291.68 33.24 295.53 34.21 298.06 36.98 C 299.80 38.58 299.49 41.12 299.55 43.26 C 296.87 40.94 293.79 38.63 290.05 38.83 C 278.70 38.74 267.34 38.89 255.99 38.78 C 253.53 38.85 250.93 38.61 248.63 39.64 C 241.11 43.86 237.19 53.08 228.75 55.84 C 220.50 56.23 212.21 55.99 203.95 55.85 C 200.50 56.09 197.84 53.72 195.44 51.60 C 206.34 49.33 217.61 51.81 228.58 50.32 C 237.10 47.40 240.73 37.63 248.83 33.96 Z M 248.83 33.96 " fill="#474747"/>
        <path d="M 481.60 85.61 C 484.17 83.09 487.13 80.25 491.00 80.33 C 494.59 80.27 497.40 82.83 499.83 85.16 C 506.73 91.93 513.15 99.18 520.21 105.80 C 522.50 107.65 523.18 110.52 522.82 113.34 C 514.75 105.69 507.02 97.68 499.15 89.82 C 497.19 87.86 494.86 85.88 491.95 85.79 C 488.40 85.37 485.43 87.72 483.11 90.09 C 471.66 101.66 460.08 113.09 448.63 124.65 C 446.29 126.95 444.17 129.55 441.34 131.27 C 438.67 132.81 435.39 131.99 432.76 130.80 C 435.70 129.57 438.87 128.53 441.15 126.17 C 454.58 112.60 468.16 99.17 481.60 85.61 Z M 481.60 85.61 " fill="#474747"/>
        <path d="M 341.35 104.69 C 347.17 103.59 353.11 104.01 359.00 103.99 C 372.34 103.96 385.69 104.04 399.04 103.93 C 401.15 104.01 403.38 103.87 405.38 104.69 C 407.04 105.84 408.21 107.51 409.58 108.96 C 399.40 109.59 389.19 109.12 379.00 109.26 C 368.99 109.04 358.98 109.95 348.99 109.40 C 345.80 109.22 343.59 106.63 341.35 104.69 Z M 341.35 104.69 " fill="#474747"/>
        <path d="M 121.25 120.22 C 123.59 117.94 125.06 114.95 125.99 111.85 C 125.78 116.23 126.16 121.35 122.76 124.71 C 101.06 146.36 79.44 168.10 57.69 189.71 C 55.66 191.71 54.05 194.07 52.44 196.41 C 50.53 190.55 55.29 185.78 59.25 182.23 C 80.26 161.91 100.45 140.76 121.25 120.22 Z M 121.25 120.22 " fill="#474747"/>
        <path d="M 556.60 131.36 C 559.49 130.75 561.20 128.09 563.17 126.14 C 563.20 127.46 563.22 128.79 563.23 130.11 C 562.52 133.24 560.19 136.32 556.84 136.78 C 550.99 137.50 545.06 136.62 539.19 137.18 C 537.68 137.38 536.55 138.55 535.27 139.26 C 535.10 136.95 534.61 134.17 536.53 132.41 C 543.06 130.58 549.97 132.55 556.60 131.36 Z M 556.60 131.36 " fill="#474747"/>
        <path d="M 528.53 178.54 C 530.91 176.21 533.02 173.62 535.08 171.01 C 535.12 172.36 535.14 173.71 535.15 175.06 C 534.49 178.77 531.50 181.41 528.99 183.98 C 519.43 193.42 509.97 202.96 500.47 212.47 C 496.43 216.57 490.95 219.70 485.05 219.59 C 476.60 219.55 468.15 219.66 459.71 219.50 C 461.16 217.70 462.66 215.95 464.15 214.18 C 469.43 214.13 474.71 214.02 480.00 214.12 C 483.92 214.11 488.02 214.28 491.72 212.73 C 496.92 210.68 500.64 206.35 504.50 202.50 C 512.49 194.50 520.45 186.45 528.53 178.54 Z M 528.53 178.54 " fill="#474747"/>
        <path d="M 307.72 232.67 C 313.03 228.77 319.94 230.59 326.04 230.33 C 324.74 236.41 323.11 242.44 321.35 248.40 C 314.63 249.99 307.23 249.04 300.28 248.76 C 301.94 243.16 302.51 236.28 307.72 232.67 Z M 307.72 232.67 " fill="#F60A0B"/>
        <path d="M 342.12 232.06 C 347.48 228.98 353.95 230.64 359.81 230.30 C 358.19 236.49 356.45 242.66 354.83 248.86 C 347.92 249.31 340.97 249.25 334.05 248.97 C 335.20 242.84 336.38 235.64 342.12 232.06 Z M 342.12 232.06 " fill="#F60A0B"/>
        <path d="M 453.28 230.28 C 446.35 230.24 439.43 230.19 432.50 230.31 C 427.54 250.27 421.99 270.09 416.72 289.97 C 413.51 302.56 409.63 315.01 406.94 327.72 C 419.30 327.81 431.67 327.73 444.03 327.78 C 453.53 327.95 463.52 324.07 469.12 316.12 C 474.65 309.23 475.85 300.24 478.22 292.00 C 479.67 286.40 481.58 280.87 482.06 275.06 C 482.47 269.33 480.25 262.89 474.78 260.25 C 466.16 255.89 456.22 258.20 446.97 257.38 C 447.82 248.08 451.93 239.49 453.28 230.28 Z M 449.78 274.25 C 452.41 274.24 454.99 274.48 457.44 275.50 C 460.56 276.86 460.04 280.92 459.47 283.62 C 457.76 290.08 456.14 296.57 454.12 302.94 C 452.88 307.11 449.13 310.48 444.72 310.78 C 440.60 311.02 436.46 310.76 432.34 310.97 C 432.38 308.18 433.36 305.57 434.09 302.91 C 436.70 293.41 439.14 283.86 441.91 274.41 C 444.48 274.49 447.15 274.26 449.78 274.25 Z M 449.78 274.25 " fill="#F60A0B"/>
        <path d="M 774.46 232.53 C 779.78 228.74 786.74 230.72 792.82 230.31 C 791.52 236.57 789.43 242.63 787.92 248.84 C 781.02 249.28 774.07 249.35 767.17 248.84 C 768.37 243.02 769.38 236.36 774.46 232.53 Z M 774.46 232.53 " fill="#F60A0B"/>
        <path d="M 214.24 257.45 C 227.16 257.68 240.09 257.34 253.01 257.61 C 258.44 257.98 264.59 259.33 267.95 264.02 C 271.44 268.85 271.09 275.29 269.88 280.84 C 266.01 296.51 261.55 312.03 257.54 327.67 C 250.65 327.84 243.77 327.76 236.89 327.73 C 239.65 314.56 243.68 301.68 246.90 288.61 C 247.78 284.62 250.39 279.45 247.04 275.98 C 242.10 273.06 236.02 274.70 230.58 274.44 C 225.84 292.16 221.08 309.88 216.40 327.62 C 209.49 327.88 202.57 327.72 195.66 327.77 C 196.22 323.56 197.52 319.51 198.62 315.43 C 203.95 296.13 208.71 276.67 214.24 257.45 Z M 214.24 257.45 " fill="#F60A0B"/>
        <path d="M 294.29 257.44 C 301.18 257.56 308.07 257.56 314.95 257.45 C 311.30 272.39 306.94 287.16 303.21 302.08 C 302.20 305.12 302.88 309.62 306.52 310.45 C 311.26 311.34 316.15 310.73 320.95 310.80 C 325.92 293.08 330.41 275.22 335.36 257.48 C 342.23 257.55 349.11 257.54 355.99 257.44 C 355.31 262.78 353.40 267.83 352.09 273.02 C 347.29 291.26 342.45 309.48 337.57 327.69 C 325.37 327.86 313.17 327.71 300.97 327.76 C 295.61 327.86 289.76 327.04 285.53 323.47 C 280.58 319.15 279.98 311.76 281.46 305.73 C 284.37 293.26 287.93 280.95 291.22 268.58 C 292.14 264.84 292.95 261.06 294.29 257.44 Z M 294.29 257.44 " fill="#F60A0B"/>
        <path d="M 695.16 257.47 C 683.08 257.55 671.01 257.51 658.94 257.53 C 649.97 257.58 640.39 260.32 634.50 267.47 C 628.16 274.27 626.58 283.74 624.19 292.38 C 622.53 299.38 619.46 306.56 621.34 313.84 C 622.55 319.64 628.06 323.69 633.75 324.41 C 641.25 325.54 648.87 324.36 656.41 325.19 C 655.71 331.30 650.09 336.11 644.03 336.34 C 635.55 336.69 627.04 336.34 618.56 336.47 C 616.99 342.25 615.20 347.97 613.97 353.84 C 619.63 354.30 625.32 353.97 631.00 354.06 C 641.67 353.92 653.29 354.72 662.69 348.72 C 671.25 343.31 675.43 333.37 677.78 323.91 C 683.18 303.98 688.45 284.02 693.84 264.09 C 694.48 261.93 694.95 259.72 695.16 257.47 Z M 661.31 274.25 C 664.19 274.20 667.13 274.46 669.94 274.34 C 667.99 284.38 664.70 294.13 662.22 304.06 C 661.63 305.69 661.48 308.51 659.06 308.22 C 654.38 308.10 649.32 309.12 644.94 307.03 C 641.34 303.80 643.60 298.52 644.47 294.56 C 646.54 288.14 646.79 280.05 653.00 276.00 C 655.60 274.67 658.43 274.30 661.31 274.25 Z M 661.31 274.25 " fill="#F60A0B"/>
        <path d="M 803.51 257.52 C 815.01 257.52 826.52 257.52 838.03 257.51 C 844.37 257.49 851.50 257.98 856.33 262.63 C 860.95 267.55 860.88 274.95 859.34 281.12 C 855.30 296.67 851.01 312.16 846.98 327.71 C 840.03 327.75 833.08 327.83 826.13 327.69 C 829.81 312.33 834.41 297.20 838.02 281.82 C 838.93 278.69 836.90 275.14 833.61 274.66 C 829.17 273.99 824.65 274.41 820.18 274.32 C 815.14 292.06 810.74 309.96 805.74 327.71 C 798.82 327.74 791.91 327.86 784.99 327.71 C 790.86 304.24 797.39 280.93 803.51 257.52 Z M 803.51 257.52 " fill="#F60A0B"/>
        <path d="M 385.11 260.25 C 393.93 256.51 403.73 257.60 413.05 257.65 C 412.09 263.76 410.16 269.66 408.65 275.65 C 403.16 276.16 396.93 274.46 392.16 278.01 C 388.33 280.68 387.73 285.62 386.54 289.78 C 383.15 302.39 379.82 315.01 376.50 327.64 C 369.63 327.86 362.75 327.76 355.88 327.73 C 356.45 323.34 357.74 319.09 358.92 314.83 C 362.18 303.37 364.87 291.76 368.17 280.31 C 370.76 271.69 376.70 263.84 385.11 260.25 Z M 385.11 260.25 " fill="#F60A0B"/>
        <path d="M 492.58 299.57 C 496.52 285.60 499.91 271.49 503.88 257.54 C 510.77 257.52 517.67 257.43 524.57 257.56 C 521.03 273.16 516.04 288.41 512.53 304.02 C 511.90 307.00 514.01 310.35 517.14 310.63 C 521.64 311.10 526.20 310.83 530.73 310.78 C 535.48 293.04 540.24 275.30 544.98 257.56 C 551.87 257.55 558.77 257.42 565.67 257.60 C 560.04 281.03 553.32 304.20 547.39 327.56 C 534.93 328.02 522.45 327.64 509.98 327.76 C 503.58 327.94 496.23 326.19 492.62 320.42 C 489.02 313.96 490.75 306.29 492.58 299.57 Z M 492.58 299.57 " fill="#F60A0B"/>
        <path d="M 596.51 259.62 C 604.99 256.64 614.15 257.61 622.97 257.64 C 621.60 263.68 619.80 269.61 618.46 275.65 C 613.17 276.14 607.33 274.63 602.53 277.52 C 598.76 279.81 597.58 284.41 596.55 288.40 C 593.63 300.35 590.04 312.13 587.20 324.10 C 586.62 325.33 586.82 327.89 584.87 327.72 C 578.32 327.79 571.78 327.83 565.24 327.67 C 569.71 311.32 573.74 294.84 578.51 278.58 C 581.34 270.06 587.90 262.56 596.51 259.62 Z M 596.51 259.62 " fill="#F60A0B"/>
        <path d="M 720.94 262.02 C 730.50 256.40 741.96 257.55 752.58 257.61 C 751.34 263.73 749.51 269.71 747.85 275.73 C 743.11 275.90 738.21 275.16 733.62 276.65 C 729.31 278.55 727.48 283.29 726.40 287.54 C 722.98 300.98 719.30 314.35 715.78 327.76 C 708.86 327.75 701.95 327.81 695.04 327.72 C 698.76 312.43 702.94 297.25 707.05 282.06 C 709.01 273.98 713.92 266.54 720.94 262.02 Z M 720.94 262.02 " fill="#F60A0B"/>
        <path d="M 746.07 327.70 C 752.11 304.25 758.32 280.83 764.77 257.48 C 771.56 257.58 778.36 257.42 785.16 257.62 C 784.56 261.56 783.52 265.41 782.39 269.23 C 777.41 288.57 772.15 307.85 767.06 327.16 L 766.60 327.66 C 759.76 327.89 752.91 327.77 746.07 327.70 Z M 746.07 327.70 " fill="#F60A0B"/>
        <path d="M 908.97 257.53 C 903.63 257.51 898.17 258.00 893.22 260.16 C 887.44 262.58 882.75 267.14 879.44 272.38 C 875.52 279.12 874.48 287.00 872.28 294.38 C 870.43 300.98 868.12 308.01 870.25 314.84 C 871.53 319.83 876.21 323.10 881.03 324.19 C 888.94 325.72 897.08 324.25 905.06 325.25 C 904.14 331.57 898.29 336.48 891.94 336.41 C 883.82 336.51 875.70 336.54 867.59 336.34 C 865.21 341.96 864.13 348.02 862.56 353.88 C 872.38 354.18 882.24 354.19 892.06 353.84 C 900.65 353.58 909.84 351.41 915.97 345.00 C 923.12 337.75 925.37 327.54 927.97 318.06 C 933.24 297.86 938.96 277.79 943.97 257.53 C 932.30 257.53 920.64 257.52 908.97 257.53 Z M 910.56 274.25 C 913.29 274.24 916.07 274.46 918.75 274.38 C 915.94 285.61 912.77 296.78 909.75 307.97 C 905.51 308.40 901.21 308.36 896.97 308.12 C 894.27 307.94 891.51 305.95 891.53 303.06 C 891.67 297.77 893.69 292.76 894.91 287.66 C 896.06 282.98 897.75 277.58 902.59 275.53 C 905.15 274.52 907.84 274.26 910.56 274.25 Z M 910.56 274.25 " fill="#F50A0B"/>
        <path d="M 266.31 358.23 C 269.04 357.17 272.12 357.80 275.00 357.66 C 283.14 357.99 291.35 357.04 299.44 358.29 C 283.47 375.04 266.49 390.78 250.33 407.36 C 232.66 424.68 215.20 442.24 197.70 459.74 C 195.53 462.19 192.27 463.11 189.08 462.97 C 171.03 462.93 152.97 463.01 134.92 462.93 C 130.62 463.12 127.01 460.59 123.76 458.10 C 123.69 459.42 123.63 460.75 123.56 462.08 C 122.89 455.74 123.50 449.36 123.31 443.00 C 123.46 438.23 122.81 433.38 123.69 428.66 C 126.05 425.49 130.61 426.89 134.00 426.57 C 141.45 427.10 149.11 425.57 156.40 427.49 C 156.74 431.18 157.09 434.86 157.49 438.54 C 164.30 439.38 171.16 438.78 177.99 439.01 C 181.04 438.92 184.68 439.51 186.90 436.89 C 202.08 421.75 217.20 406.52 232.41 391.40 C 241.07 383.41 249.18 374.84 257.59 366.58 C 260.50 363.81 263.01 360.57 266.31 358.23 Z M 266.31 358.23 " fill="#B9B0B0"/>
        <path d="M 299.44 358.29 C 301.19 357.02 303.67 357.93 305.70 357.77 C 302.82 361.50 299.21 364.57 295.97 367.98 C 284.69 378.69 273.91 389.92 262.85 400.86 C 248.33 415.00 234.07 429.40 219.73 443.73 C 212.36 450.70 205.27 457.96 198.15 465.18 C 196.50 466.79 194.47 468.30 192.04 468.21 C 174.03 468.32 156.02 468.18 138.01 468.27 C 134.95 468.24 131.75 468.38 128.89 467.10 C 126.61 466.05 125.14 463.92 123.56 462.08 C 123.63 460.75 123.69 459.42 123.76 458.10 C 127.01 460.59 130.62 463.12 134.92 462.93 C 152.97 463.01 171.03 462.93 189.08 462.97 C 192.27 463.11 195.53 462.19 197.70 459.74 C 215.20 442.24 232.66 424.68 250.33 407.36 C 266.49 390.78 283.47 375.04 299.44 358.29 Z M 299.44 358.29 " fill="#474747"/>
        <path d="M 166.47 380.45 C 174.36 373.55 180.92 365.20 189.19 358.72 C 189.28 360.84 189.70 363.33 188.06 365.02 C 184.47 369.10 180.33 372.66 176.58 376.59 C 172.99 380.00 169.85 383.96 165.75 386.79 C 160.34 389.86 153.84 388.56 147.91 388.80 C 148.97 387.46 150.03 386.13 151.16 384.85 C 155.95 382.29 162.20 384.28 166.47 380.45 Z M 166.47 380.45 " fill="#474747"/>
        <path d="M 103.69 363.58 C 123.46 364.65 143.28 363.39 163.05 364.29 C 163.00 366.13 162.88 368.08 161.36 369.36 C 146.22 369.20 131.09 369.36 115.95 369.28 C 111.17 369.47 107.10 366.60 103.69 363.58 Z M 103.69 363.58 " fill="#474747"/>
        <path d="M 102.36 393.27 C 107.13 391.82 112.20 392.21 117.11 392.29 C 116.22 393.74 115.33 395.19 114.40 396.63 C 115.81 397.10 117.19 397.64 118.54 398.28 L 117.56 398.17 C 116.03 397.97 114.50 397.76 112.98 397.56 C 107.34 402.39 102.46 408.00 97.08 413.11 C 94.58 415.61 91.76 417.89 89.87 420.92 C 88.64 422.87 89.14 425.26 89.18 427.42 C 88.82 446.80 89.14 466.19 89.00 485.58 C 77.07 497.11 65.52 509.04 53.68 520.67 C 51.54 522.94 47.93 526.60 51.03 529.59 C 53.98 531.52 57.67 530.92 61.00 531.04 C 69.68 530.86 78.37 531.22 87.05 530.90 C 91.68 530.77 95.44 527.80 99.23 525.51 C 100.94 527.83 101.11 530.70 101.21 533.49 C 93.93 540.09 87.20 547.26 80.19 554.14 C 75.95 558.22 72.20 563.17 66.62 565.50 C 61.69 567.58 56.22 567.05 51.00 567.11 C 37.64 566.92 24.28 566.96 10.93 566.97 C 7.27 567.16 3.92 565.62 0.75 564.00 C 0.95 561.31 0.44 558.32 1.98 555.94 C 4.31 552.36 7.72 549.70 10.69 546.70 C 23.52 533.86 36.69 521.35 49.15 508.14 C 52.38 505.33 51.68 500.81 51.74 497.00 C 51.51 481.01 51.65 465.01 51.55 449.01 C 51.63 445.84 51.60 442.30 53.77 439.75 C 56.42 436.43 59.72 433.71 62.69 430.69 C 72.54 420.87 82.38 411.05 92.19 401.19 C 95.23 398.17 98.12 394.59 102.36 393.27 Z M 102.36 393.27 " fill="#B9B0B0"/>
        <path d="M 97.08 413.11 C 102.46 408.00 107.34 402.39 112.98 397.56 C 114.50 397.76 116.03 397.97 117.56 398.17 C 108.42 408.22 97.97 417.05 89.18 427.42 C 89.14 425.26 88.64 422.87 89.87 420.92 C 91.76 417.89 94.58 415.61 97.08 413.11 Z M 97.08 413.11 " fill="#474747"/>
        <path d="M 53.68 520.67 C 65.52 509.04 77.07 497.11 89.00 485.58 C 89.05 488.21 89.46 491.24 87.24 493.18 C 75.28 505.42 62.98 517.33 51.03 529.59 C 47.93 526.60 51.54 522.94 53.68 520.67 Z M 53.68 520.67 " fill="#474747"/>
        <path d="M 80.19 554.14 C 87.20 547.26 93.93 540.09 101.21 533.49 C 102.58 537.97 99.35 541.56 96.26 544.28 C 89.88 550.56 83.56 556.90 77.25 563.26 C 72.69 567.88 66.90 572.77 59.96 572.00 C 42.62 571.57 25.29 573.03 7.98 572.16 C 3.53 572.22 0.59 568.20 0.75 564.00 C 3.92 565.62 7.27 567.16 10.93 566.97 C 24.28 566.96 37.64 566.92 51.00 567.11 C 56.22 567.05 61.69 567.58 66.62 565.50 C 72.20 563.17 75.95 558.22 80.19 554.14 Z M 80.19 554.14 " fill="#474747"/>
    </g>
</svg>
